<svg viewBox="-102 0 512 512" xmlns="http://www.w3.org/2000/svg"><path d="m109.460938 338.828125h-50.980469l50.980469-50.890625zm0 0" fill="#ffb442"/><path d="m211.421875 50.511719v410.972656c0 23.75-19.296875 43.015625-43.089844 43.015625h-15.777343c-1.78125 0-3.519532-.101562-5.238282-.320312-1.523437-.175782-3.015625-.445313-4.472656-.773438-17.269531-3.96875-30.554688-18.296875-32.988281-36.0625-.257813-1.910156-.390625-3.875-.390625-5.859375v-394.433594h-50.980469v-59.554687h109.847656c23.800781 0 43.089844 19.265625 43.089844 43.015625zm0 0" fill="#ffd764"/><path d="m67.84375 338.828125h-18.730469c-22.980469 0-41.613281-18.628906-41.613281-41.613281v-248.101563c0-22.980469 18.632812-41.613281 41.613281-41.613281h18.730469c22.984375 0 41.617188 18.632812 41.617188 41.613281v248.101563c0 22.984375-18.632813 41.613281-41.617188 41.613281zm0 0" fill="#ffa222"/><path d="m59.101562 307.3125h-1.246093c-9.746094 0-17.644531-7.898438-17.644531-17.640625v-233.011719c0-9.746094 7.898437-17.644531 17.644531-17.644531h1.246093c9.746094 0 17.644532 7.898437 17.644532 17.644531v233.011719c0 9.742187-7.898438 17.640625-17.644532 17.640625zm0 0" fill="#ff8200"/><path d="m211.421875 254.546875v206.9375c0 23.75-19.296875 43.015625-43.089844 43.015625h-15.777343c-1.78125 0-3.519532-.101562-5.238282-.320312 1.511719-.175782 2.992188-.433594 4.449219-.773438 19.132813-4.382812 33.410156-21.488281 33.410156-41.921875v-196.769531c0-5.621094 4.566407-10.167969 10.199219-10.167969zm0 0" fill="#ffca4f"/><path d="m300.636719 302.886719v158.597656c0 23.75-19.296875 43.015625-43.089844 43.015625h-101.960937c23.792968 0 43.089843-19.265625 43.089843-43.015625v-158.597656c0-5.625 4.566407-10.183594 10.199219-10.183594h81.554688c5.640624 0 10.207031 4.558594 10.207031 10.183594zm0 0" fill="#ffd764"/><path d="m274.769531 264.109375h-56.253906c-3.917969 0-7.097656 3.179687-7.097656 7.097656v21.496094h70.449219v-21.496094c0-3.921875-3.179688-7.097656-7.097657-7.097656zm0 0" fill="#e4eaf7"/><path d="m274.515625 264.109375h-6.886719c0 10.511719-8.535156 19.03125-19.0625 19.03125h-37.148437v9.5625h70.445312v-21.257813c.003907-4.050781-3.289062-7.335937-7.347656-7.335937zm0 0" fill="#c7cfe2"/><path d="m84.246094 289.671875v-233.011719c0-13.863281-11.28125-25.144531-25.144532-25.144531h-1.246093c-13.863281 0-25.144531 11.28125-25.144531 25.144531v17.851563c0 4.144531 3.359374 7.5 7.5 7.5 4.144531 0 7.5-3.355469 7.5-7.5v-17.851563c0-5.59375 4.550781-10.144531 10.144531-10.144531h1.246093c5.59375 0 10.144532 4.550781 10.144532 10.144531v233.011719c0 5.59375-4.550782 10.140625-10.144532 10.140625h-1.246093c-5.59375 0-10.144531-4.546875-10.144531-10.140625v-182.660156c0-4.140625-3.355469-7.5-7.5-7.5-4.140626 0-7.5 3.359375-7.5 7.5v182.660156c0 13.863281 11.28125 25.140625 25.144531 25.140625h1.246093c13.863282 0 25.144532-11.277344 25.144532-25.140625zm0 0"/><path d="m300.636719 423.957031c4.144531 0 7.5-3.359375 7.5-7.5v-113.570312c0-9.75-7.945313-17.683594-17.707031-17.683594h-1.066407v-13.996094c0-8.050781-6.546875-14.597656-14.59375-14.597656h-56.253906c-7.777344 0-14.128906 6.113281-14.554687 13.785156-.03125.265625-.046876.535157-.046876.808594v14.722656c-7.351562 2.148438-12.738281 8.929688-12.738281 16.960938v158.597656c0 19.492187-15.820312 35.363281-35.320312 35.507813h-3.3125c-17.703125 0-32.429688-12.96875-35.136719-29.886719h37.542969c4.144531 0 7.5-3.355469 7.5-7.5 0-4.140625-3.355469-7.5-7.5-7.5h-37.996094v-86.804688h37.996094c4.144531 0 7.5-3.355469 7.5-7.5 0-4.140625-3.355469-7.5-7.5-7.5h-37.996094v-11.394531c0-.023438.003906-.050781.003906-.078125 0-.023437-.003906-.050781-.003906-.074219v-41.386718c0-.050782.003906-.101563.003906-.152344v-33.71875h37.992188c4.144531 0 7.5-3.355469 7.5-7.5 0-4.140625-3.355469-7.5-7.5-7.5h-37.992188v-86.804688h37.992188c4.144531 0 7.5-3.355468 7.5-7.5 0-4.140625-3.355469-7.5-7.5-7.5h-37.992188v-86.804687h37.992188c4.144531 0 7.5-3.355469 7.5-7.5 0-4.140625-3.355469-7.5-7.5-7.5h-38.183594c-.992187-11.5625-6.003906-21.992188-13.636719-29.882813h65.207032c19.617187 0 35.578124 15.929688 35.578124 35.507813v184.335937c0 4.140625 3.355469 7.5 7.5 7.5 4.144532 0 7.5-3.359375 7.5-7.5v-184.335937c0-27.851563-22.691406-50.50781275-50.578124-50.50781275h-100.355469c-.046875 0-.089844-.00390625-.136719-.00390625h-18.730469c-27.082031 0-49.113281 22.03125-49.113281 49.113281v248.101563c0 27.082031 22.03125 49.113281 49.113281 49.113281h52.839844v115.15625c0 27.851563 22.695313 50.507813 50.59375 50.507813h2.902344c.046875 0 .089843.007812.136719.007812h101.957031c27.898437 0 50.59375-22.660156 50.59375-50.515625v-12.636719c0-4.144531-3.359375-7.5-7.5-7.5-4.144531 0-7.5 3.355469-7.5 7.5v12.636719c0 19.582031-15.96875 35.515625-35.59375 35.515625h-30.039063c.390625-.925781.605469-1.941406.605469-3.011719 0-4.28125-3.476563-7.75-7.765625-7.75-4.285156 0-7.765625 3.46875-7.765625 7.75 0 1.070313.21875 2.085938.609375 3.011719h-21.660156c9.050781-9.132812 14.648437-21.683594 14.648437-35.515625v-10.898437h44.359375c4.144532 0 7.5-3.359376 7.5-7.5 0-4.140626-3.355468-7.5-7.5-7.5h-44.359375v-86.804688h44.359375c4.144532 0 7.5-3.359375 7.5-7.5s-3.355468-7.5-7.5-7.5h-44.359375v-30.894531c0-1.480469 1.210938-2.683594 2.695313-2.683594h81.554687c1.496094 0 2.710938 1.203125 2.710938 2.683594v113.570312c0 4.140625 3.355469 7.5 7.5 7.5zm-242.15625-92.625h-9.367188c-18.808593 0-34.113281-15.304687-34.113281-34.117187v-248.097656c0-18.8125 15.304688-34.117188 34.113281-34.117188h9.292969c.023438 0 .046875.003906.070312.003906h9.503907c18.746093.074219 33.980469 15.347656 33.980469 34.113282v17.847656c0 .027344-.007813.050781-.007813.078125v230.324219c-.082031 18.742187-15.351563 33.960937-34.109375 33.960937h-9.363281zm160.4375-46.128906v-13.59375h55.445312v13.59375zm0 0"/><path d="m140.289062 78.226562c0-4.28125-3.476562-7.75-7.765624-7.75-4.289063 0-7.765626 3.46875-7.765626 7.75s3.476563 7.753907 7.765626 7.753907c4.289062 0 7.765624-3.472657 7.765624-7.753907zm0 0"/><path d="m140.289062 103.289062c0-4.28125-3.476562-7.75-7.765624-7.75-4.289063 0-7.765626 3.46875-7.765626 7.75 0 4.285157 3.476563 7.753907 7.765626 7.753907 4.289062 0 7.765624-3.46875 7.765624-7.753907zm0 0"/><path d="m140.289062 128.355469c0-4.28125-3.476562-7.753907-7.765624-7.753907-4.289063 0-7.765626 3.472657-7.765626 7.753907s3.476563 7.75 7.765626 7.75c4.289062 0 7.765624-3.46875 7.765624-7.75zm0 0"/><path d="m140.289062 180.03125c0-4.28125-3.476562-7.75-7.765624-7.75-4.289063 0-7.765626 3.46875-7.765626 7.75s3.476563 7.753906 7.765626 7.753906c4.289062 0 7.765624-3.472656 7.765624-7.753906zm0 0"/><path d="m140.289062 205.09375c0-4.28125-3.476562-7.75-7.765624-7.75-4.289063 0-7.765626 3.46875-7.765626 7.75s3.476563 7.753906 7.765626 7.753906c4.289062 0 7.765624-3.472656 7.765624-7.753906zm0 0"/><path d="m140.289062 230.160156c0-4.28125-3.476562-7.753906-7.765624-7.753906-4.289063 0-7.765626 3.472656-7.765626 7.753906s3.476563 7.75 7.765626 7.75c4.289062 0 7.765624-3.46875 7.765624-7.75zm0 0"/><path d="m140.289062 281.835938c0-4.28125-3.476562-7.75-7.765624-7.75-4.289063 0-7.765626 3.46875-7.765626 7.75s3.476563 7.753906 7.765626 7.753906c4.289062 0 7.765624-3.472656 7.765624-7.753906zm0 0"/><path d="m140.289062 306.898438c0-4.28125-3.476562-7.75-7.765624-7.75-4.289063 0-7.765626 3.46875-7.765626 7.75s3.476563 7.753906 7.765626 7.753906c4.289062 0 7.765624-3.472656 7.765624-7.753906zm0 0"/><path d="m140.289062 331.964844c0-4.28125-3.476562-7.753906-7.765624-7.753906-4.289063 0-7.765626 3.472656-7.765626 7.753906s3.476563 7.75 7.765626 7.75c4.289062 0 7.765624-3.46875 7.765624-7.75zm0 0"/><path d="m140.289062 383.640625c0-4.28125-3.476562-7.75-7.765624-7.75-4.289063 0-7.765626 3.46875-7.765626 7.75s3.476563 7.753906 7.765626 7.753906c4.289062 0 7.765624-3.472656 7.765624-7.753906zm0 0"/><path d="m140.289062 408.703125c0-4.28125-3.476562-7.75-7.765624-7.75-4.289063 0-7.765626 3.46875-7.765626 7.75s3.476563 7.753906 7.765626 7.753906c4.289062 0 7.765624-3.472656 7.765624-7.753906zm0 0"/><path d="m140.289062 433.769531c0-4.28125-3.476562-7.753906-7.765624-7.753906-4.289063 0-7.765626 3.472656-7.765626 7.753906s3.476563 7.75 7.765626 7.75c4.289062 0 7.765624-3.46875 7.765624-7.75zm0 0"/><path d="m235.875 367.121094c0-4.28125-3.476562-7.753906-7.765625-7.753906-4.285156 0-7.761719 3.472656-7.761719 7.753906s3.476563 7.75 7.761719 7.75c4.289063 0 7.765625-3.46875 7.765625-7.75zm0 0"/><path d="m235.875 392.183594c0-4.28125-3.476562-7.75-7.765625-7.75-4.285156 0-7.761719 3.46875-7.761719 7.75s3.476563 7.753906 7.761719 7.753906c4.289063 0 7.765625-3.472656 7.765625-7.753906zm0 0"/><path d="m235.875 417.246094c0-4.28125-3.476562-7.75-7.765625-7.75-4.285156 0-7.761719 3.46875-7.761719 7.75 0 4.285156 3.476563 7.753906 7.761719 7.753906 4.289063 0 7.765625-3.46875 7.765625-7.753906zm0 0"/><path d="m235.878906 468.925781c0-4.28125-3.476562-7.753906-7.765625-7.753906-4.289062 0-7.765625 3.472656-7.765625 7.753906s3.476563 7.75 7.765625 7.75c4.289063 0 7.765625-3.46875 7.765625-7.75zm0 0"/></svg>